<svg width="24" height="30" viewBox="0 0 24 30" fill="none" xmlns="http://www.w3.org/2000/svg">
<path d="M0.43698 4.81261L11.4858 6.97318L22.5347 9.13374C22.6326 9.15283 22.7342 9.13225 22.817 9.07652C22.8998 9.0208 22.9571 8.93448 22.9764 8.83653C23.0382 8.52032 23.0372 8.19502 22.9734 7.8792C22.9095 7.56339 22.784 7.26325 22.6042 6.99592C22.4243 6.7286 22.1935 6.49933 21.925 6.3212C21.6565 6.14308 21.3556 6.01959 21.0394 5.9578L17.373 5.24086L17.5655 4.25649C17.7012 3.5586 17.5545 2.83539 17.1576 2.24553C16.7607 1.65568 16.146 1.24734 15.4484 1.11012L10.0237 0.0493301C9.3258 -0.0863195 8.6026 0.0603988 8.01274 0.457297C7.42289 0.854196 7.01455 1.46886 6.87732 2.16645L6.68483 3.15081L3.01851 2.43387C2.70229 2.37199 2.37699 2.37302 2.06117 2.43688C1.74536 2.50074 1.44521 2.62619 1.17789 2.80607C0.910563 2.98595 0.681292 3.21673 0.503168 3.48522C0.325045 3.75372 0.201559 4.05468 0.139764 4.3709C0.120679 4.46888 0.141259 4.57043 0.196985 4.65325C0.252711 4.73607 0.339028 4.79338 0.43698 4.81261ZM10.6842 1.89803L14.1402 2.57384C14.66 2.67548 15.1181 2.97945 15.4138 3.41888C15.7095 3.85831 15.8185 4.39719 15.7168 4.91699L12.0289 4.19583L8.34104 3.47468C8.39137 3.2173 8.4919 2.97236 8.63689 2.75383C8.78189 2.53531 8.9685 2.34748 9.18608 2.20107C9.40366 2.05467 9.64795 1.95255 9.905 1.90056C10.162 1.84856 10.4268 1.8477 10.6842 1.89803Z" fill="#C34D4B"/>
<path d="M22.8927 10.9691H0.376455C0.276636 10.9692 0.180926 11.0088 0.110343 11.0794C0.0397596 11.15 7.3605e-05 11.2457 0 11.3455V12.7735C0 12.9812 3.9009 27.5268 3.9009 27.5268C3.95714 28.1957 4.26254 28.8191 4.75659 29.2735C5.25065 29.7278 5.89734 29.9801 6.56857 29.9803H16.7006C17.3718 29.9801 18.0185 29.7278 18.5125 29.2735C19.0066 28.8191 19.312 28.1957 19.3682 27.5268C19.3682 27.5268 23.2691 12.9812 23.2691 12.7735V11.3455C23.2691 11.2457 23.2294 11.15 23.1588 11.0794C23.0882 11.0088 22.9925 10.9692 22.8927 10.9691ZM7.92629 26.4877C7.84624 26.5092 7.76274 26.5147 7.68056 26.5039C7.59839 26.4931 7.51915 26.4662 7.4474 26.4247C7.37565 26.3832 7.31278 26.328 7.2624 26.2621C7.21202 26.1963 7.17512 26.1212 7.15381 26.0411C6.08031 22.0265 4.98867 17.9384 4.27446 15.2322C4.23177 15.0704 4.25508 14.8983 4.33929 14.7537C4.42349 14.6091 4.56168 14.5039 4.72346 14.4612C4.88524 14.4185 5.05735 14.4418 5.20194 14.526C5.34653 14.6102 5.45174 14.7484 5.49444 14.9102C6.20829 17.6147 7.29975 21.7016 8.37274 25.7153C8.39415 25.7953 8.3996 25.8788 8.38875 25.9609C8.3779 26.043 8.35098 26.1222 8.30952 26.194C8.26806 26.2657 8.21288 26.3286 8.14712 26.379C8.08136 26.4294 8.00633 26.4663 7.92629 26.4877ZM12.2647 25.8782C12.2644 26.0453 12.1977 26.2055 12.0794 26.3235C11.9612 26.4416 11.8009 26.5079 11.6337 26.5079C11.4666 26.5079 11.3063 26.4416 11.188 26.3235C11.0698 26.2055 11.0031 26.0453 11.0028 25.8782V15.0712C11.0031 14.9041 11.0698 14.7439 11.188 14.6259C11.3063 14.5078 11.4666 14.4415 11.6337 14.4415C11.8009 14.4415 11.9612 14.5078 12.0794 14.6259C12.1977 14.7439 12.2644 14.9041 12.2647 15.0712V25.8782ZM18.9946 15.2322C18.2482 18.0608 17.0638 22.4946 16.1152 26.0412C16.0939 26.1213 16.0569 26.1964 16.0065 26.2622C15.9561 26.328 15.8933 26.3832 15.8215 26.4247C15.7498 26.4662 15.6706 26.4931 15.5884 26.504C15.5062 26.5149 15.4227 26.5094 15.3427 26.488C15.2626 26.4666 15.1875 26.4296 15.1218 26.3792C15.056 26.3287 15.0008 26.2658 14.9594 26.1941C14.9179 26.1223 14.891 26.0431 14.8802 25.9609C14.8694 25.8787 14.8749 25.7952 14.8963 25.7152C15.8445 22.1695 17.0286 17.7371 17.7746 14.9102C17.7958 14.8301 17.8325 14.755 17.8827 14.689C17.9329 14.6231 17.9955 14.5677 18.0671 14.526C18.1387 14.4844 18.2178 14.4572 18.2999 14.446C18.382 14.4349 18.4655 14.4401 18.5456 14.4612C18.6257 14.4824 18.7009 14.5191 18.7668 14.5693C18.8327 14.6194 18.8881 14.6821 18.9298 14.7537C18.9715 14.8253 18.9987 14.9044 19.0098 14.9865C19.0209 15.0686 19.0157 15.1521 18.9946 15.2322Z" fill="#C34D4B"/>
</svg>
