<svg width="22" height="30" viewBox="0 0 22 30" fill="none" xmlns="http://www.w3.org/2000/svg">
<path d="M18.2142 8.13665C18.9879 6.90541 19.255 5.43982 18.963 4.02837C18.8272 3.33657 18.5405 2.68042 18.1218 2.10328C17.7032 1.52613 17.1621 1.04113 16.5345 0.680336C13.9794 -0.781687 10.5642 0.192995 8.94513 2.83438L7.77637 4.73501L17.0455 10.0373L18.2142 8.13665ZM16.0791 6.46507L11.48 3.83343C12.4008 2.66381 13.9794 2.23983 15.1785 2.92211C15.4813 3.09897 15.7413 3.33615 15.9411 3.61772C16.1409 3.89929 16.276 4.21875 16.3371 4.5547C16.4626 5.20176 16.3722 5.87046 16.0791 6.46507Z" fill="#91A398"/>
<path d="M0.763993 26.2804L1.55834 26.6605L9.28429 22.6399L15.6846 12.2742L6.38516 6.96704L0 17.3377L0.0404765 25.0523C0.0435971 25.2992 0.111586 25.5413 0.238103 25.756C0.364619 25.9708 0.545541 26.1512 0.763993 26.2804ZM7.34142 10.5295L11.981 13.1806L7.34142 20.6954L2.7271 23.098L2.7018 18.0297L7.34142 10.5295Z" fill="#91A398"/>
<path d="M21.0822 28H0.917813C0.410919 28 0 28.4477 0 29C0 29.5523 0.410919 30 0.917813 30H21.0822C21.5891 30 22 29.5523 22 29C22 28.4477 21.5891 28 21.0822 28Z" fill="#91A398"/>
</svg>
