<svg width="34" height="39" viewBox="0 0 34 39" fill="none" xmlns="http://www.w3.org/2000/svg">
<path d="M0.5 22.8329C0.5 31.5299 7.74027 38.5 16.7 38.5C25.5572 38.5 32.9018 31.4349 32.8 22.8299V18.389C32.8 15.0108 29.9653 12.1893 26.4 12.1893H6.9C3.44589 12.1893 0.5 14.9034 0.5 18.389V22.8329ZM3.5 18.2924C3.5 16.5477 4.96818 15.0248 6.9 15.0248H26.5C28.3488 15.0248 29.9 16.4675 29.9 18.2924V22.7363C29.9 29.7861 24.0403 35.4713 16.7 35.4713C9.35973 35.4713 3.5 29.7861 3.5 22.7363V18.2924Z" fill="#68462B" stroke="#68462B"/>
<path d="M24.4 13.5587C24.4 13.9675 24.5437 14.3445 24.8276 14.6187C25.11 14.8915 25.4915 15.0248 25.9 15.0248C26.3066 15.0248 26.6756 14.833 26.9349 14.5825C27.1931 14.333 27.4 13.9691 27.4 13.5587V10.8538C27.4 5.15159 22.5597 0.5 16.7 0.5C10.8403 0.5 6 5.15159 6 10.8538V13.5587C6 13.9675 6.1437 14.3445 6.4276 14.6187C6.70995 14.8915 7.09145 15.0248 7.5 15.0248C7.90855 15.0248 8.29005 14.8915 8.5724 14.6187C8.8563 14.3445 9 13.9675 9 13.5587V10.8538C9 6.7988 12.4597 3.43211 16.7 3.43211C20.9403 3.43211 24.4 6.7988 24.4 10.8538V13.5587Z" fill="#68462B" stroke="#68462B"/>
<path d="M15.2 27.6632C15.2 28.0719 15.3437 28.4489 15.6276 28.7232C15.91 28.996 16.2914 29.1292 16.7 29.1292C17.4262 29.1292 18.2 28.5664 18.2 27.6632V22.3499C18.2 21.9411 18.0563 21.5641 17.7724 21.2899C17.49 21.0171 17.1085 20.8838 16.7 20.8838C16.2914 20.8838 15.91 21.0171 15.6276 21.2899C15.3437 21.5641 15.2 21.9411 15.2 22.3499V27.6632Z" fill="#68462B" stroke="#68462B"/>
</svg>
