<svg width="43" height="43" viewBox="0 0 43 43" fill="none" xmlns="http://www.w3.org/2000/svg">
<path d="M21.5 41C32.2696 41 41 32.2696 41 21.5C41 10.7304 32.2696 2 21.5 2C10.7304 2 2 10.7304 2 21.5C2 32.2696 10.7304 41 21.5 41Z" stroke="#E9E0D1" stroke-width="4" stroke-miterlimit="10" stroke-linecap="round" stroke-linejoin="round"/>
<path d="M21.5 24.2857C25.3463 24.2857 28.4643 21.1677 28.4643 17.3214C28.4643 13.4751 25.3463 10.3571 21.5 10.3571C17.6537 10.3571 14.5357 13.4751 14.5357 17.3214C14.5357 21.1677 17.6537 24.2857 21.5 24.2857Z" stroke="#E9E0D1" stroke-width="4" stroke-miterlimit="10" stroke-linecap="round" stroke-linejoin="round"/>
<path d="M6.73575 34.175C9.24289 28.4643 14.8143 24.425 21.5 24.425C28.1857 24.425 33.8965 28.4643 36.2643 34.175" stroke="#E9E0D1" stroke-width="4" stroke-miterlimit="10" stroke-linecap="round" stroke-linejoin="round"/>
</svg>
